<svg width="1920" height="1080" viewBox="0 0 1920 1080" fill="none" xmlns="http://www.w3.org/2000/svg">
  <!-- Gradient background -->
  <defs>
    <linearGradient id="heroGradient" x1="0%" y1="0%" x2="100%" y2="100%">
      <stop offset="0%" style="stop-color:#2E6D38;stop-opacity:0.3" />
      <stop offset="50%" style="stop-color:#5BA8D1;stop-opacity:0.2" />
      <stop offset="100%" style="stop-color:#F9A826;stop-opacity:0.1" />
    </linearGradient>
  </defs>
  
  <!-- Background -->
  <rect width="1920" height="1080" fill="#F7F7F7"/>
  <rect width="1920" height="1080" fill="url(#heroGradient)"/>
  
  <!-- Soft abstract shapes representing care and community -->
  <circle cx="300" cy="200" r="80" fill="#2E6D38" opacity="0.1"/>
  <circle cx="1600" cy="300" r="120" fill="#5BA8D1" opacity="0.1"/>
  <circle cx="500" cy="800" r="60" fill="#F9A826" opacity="0.1"/>
  <circle cx="1400" cy="700" r="90" fill="#2E6D38" opacity="0.1"/>
  
  <!-- Center icon representing hospice care -->
  <g transform="translate(910, 490)">
    <!-- Heart with hands -->
    <path d="M50 40C50 20 30 0 10 0C-10 0 -30 20 -30 40C-30 70 50 100 50 100S130 70 130 40C130 20 110 0 90 0C70 0 50 20 50 40Z" fill="#2E6D38" opacity="0.3"/>
    
    <!-- Hands underneath -->
    <path d="M20 60C20 60 30 80 50 80C70 80 80 60 80 60" stroke="#5BA8D1" stroke-width="3" fill="none" opacity="0.5"/>
  </g>
  
  <!-- Placeholder text -->
  <text x="960" y="540" text-anchor="middle" fill="#666666" font-family="Arial, sans-serif" font-size="24" opacity="0.7">
    Hero Image Placeholder
  </text>
  <text x="960" y="570" text-anchor="middle" fill="#666666" font-family="Arial, sans-serif" font-size="16" opacity="0.6">
    (Hospice nurse with patient - to be replaced with actual image)
  </text>
</svg>
